<?xml version="1.0" encoding="utf-8"?>
<!-- Generator: Adobe Illustrator 14.0.0, SVG Export Plug-In . SVG Version: 6.00 Build 43363)  -->
<!DOCTYPE svg PUBLIC "-//W3C//DTD SVG 1.1//EN" "http://www.w3.org/Graphics/SVG/1.1/DTD/svg11.dtd">
<svg version="1.1" id="Layer_1" xmlns="http://www.w3.org/2000/svg" xmlns:xlink="http://www.w3.org/1999/xlink" x="0px" y="0px"
	 width="612px" height="792px" viewBox="0 0 612 792" enable-background="new 0 0 612 792" xml:space="preserve">
<g>
	<polygon fill-rule="evenodd" clip-rule="evenodd" fill="#FFFFFF" points="209,300 401.756,300 401.756,492.756 209,492.756 
		209,300 	"/>
	<path fill-rule="evenodd" clip-rule="evenodd" d="M218.115,398.135l1.986,4.43h19.097l2.827-5.424l-1.222-0.992
		c0,0-2.674,2.598-7.181,2.598c0,0-3.743-0.307-3.743-2.368c0,0,0.535-1.375,2.368-1.375c0,0,0.84,0,1.833,0.84
		c0.993,0.841,1.986,0.458,1.986-0.535c0-0.993,0-3.667,0-3.667s-0.229-1.222-1.298-1.222s-1.375,1.222-3.208,1.222
		s-1.298-1.681-1.298-1.681s0.076-1.527,4.965-1.527c0,0,3.438,0.153,4.965,1.986l1.91-1.451l-2.903-4.049h-19.402
		c0,0-1.299,1.986-2.292,3.59c0,0,3.972,0.611,3.972,3.514c0,2.903,0,4.431,0,4.431S221.782,398.135,218.115,398.135
		L218.115,398.135z"/>
	<path fill-rule="evenodd" clip-rule="evenodd" d="M269.678,398.135l1.986,4.43h19.097l2.827-5.424l-1.222-0.992
		c0,0-2.674,2.598-7.181,2.598c0,0-3.743-0.307-3.743-2.368c0,0,0.535-1.375,2.368-1.375c0,0,0.84,0,1.833,0.84
		c0.993,0.841,1.986,0.458,1.986-0.535c0-0.993,0-3.667,0-3.667s-0.229-1.222-1.298-1.222c-1.07,0-1.375,1.222-3.208,1.222
		c-1.833,0-1.299-1.681-1.299-1.681s0.077-1.579,4.15-1.527c0,0,3.438,0.153,4.66,1.68l1.91-1.451l-2.598-3.743h-17.773
		c0,0-1.298,1.986-2.292,3.59c0,0,3.208-0.306,3.157,3.514c-0.039,2.903,0,4.431,0,4.431S273.344,398.135,269.678,398.135
		L269.678,398.135z"/>
	<path fill-rule="evenodd" clip-rule="evenodd" d="M317.268,384.767l-2.521,4.43l2.444,2.215c0,0,2.674-2.673,3.36-2.673
		c0.993,0,1.223,0.764,1.223,0.764s0,10.388,0,13.138c0,0,0.382,2.063-2.368,2.063s-48.583,0-48.583,0s-1.451-8.708-6.722-9.7
		c0,0-0.382-0.688,0.458-0.688s4.507,0.076,4.507-4.278c0-4.354-6.035-5.227-9.472-5.227s-15.201-0.044-15.201-0.044v4.125
		c0,0,1.681,0.687,1.681,2.979c0,2.292,0,4.737,0,4.737s-0.077,2.75-3.208,1.832l1.681,4.049h9.548l1.452-3.438l-2.521-1.299
		l0.535-1.604c0,0,7.715-0.306,7.715,6.264c0,0,0.306,1.91-2.215,1.91l1.91,3.896h70.048l1.757-3.516c0,0-3.438-0.533-3.438-3.283
		s0-11.917,0-11.917s0.229-0.764,1.223-0.764c0.688,0,3.36,2.673,3.36,2.673l2.444-2.215l-2.521-4.43H317.268L317.268,384.767z"/>
	<path fill-rule="evenodd" clip-rule="evenodd" fill="#FFFFFF" d="M255.469,388.663c1.451,0,3.743,0.993,3.743,2.444
		s-1.375,2.597-3.59,2.597s-2.215-0.917-2.215-0.917v-3.132C253.407,389.655,253.407,388.663,255.469,388.663L255.469,388.663z"/>
	<path fill-rule="evenodd" clip-rule="evenodd" d="M386.858,402.387c3.31,0,5.296-1.629,6.161-2.598
		c0.866-0.967-0.967-2.342-0.967-2.342c-1.324,0.967-2.954,1.018-2.954,1.018c-3.514,0-3.845-3.462-3.845-3.462
		s-0.382-0.688,0.458-0.688c0.841,0,3.642,0.076,3.642-4.278c0-4.354-7.461-5.227-10.898-5.227s-14.845-0.044-14.845-0.044
		l-1.731,3.819c0,0,3.056,0.993,3.056,3.284c0,2.292,0,4.737,0,4.737s-0.076,2.75-4.125,1.832l1.681,4.049h12.451l1.247-3.182
		c-3.514-1.02-2.673-3.301-2.113-3.301c0,0,0.611-0.188,1.478,0.779C376.418,397.752,378.251,402.387,386.858,402.387
		L386.858,402.387z"/>
	<path fill-rule="evenodd" clip-rule="evenodd" fill="#FFFFFF" d="M375.247,388.663c1.451,0,3.743,0.993,3.743,2.444
		s-1.376,2.597-3.591,2.597s-2.215-0.917-2.215-0.917v-3.132C373.185,389.655,373.185,388.663,375.247,388.663L375.247,388.663z"/>
	<path fill-rule="evenodd" clip-rule="evenodd" d="M348.969,402.393c7.199,0,12.526-3.646,12.526-8.459
		c0-4.813-5.327-9.071-12.526-9.071s-13.035,4.258-13.035,9.071C335.934,398.746,341.77,402.393,348.969,402.393L348.969,402.393z"
		/>
	<path fill-rule="evenodd" clip-rule="evenodd" fill="#FFFFFF" d="M348.511,398.525c1.671,0,3.024-2.193,3.024-4.897
		s-1.354-4.897-3.024-4.897s-3.025,2.193-3.025,4.897S346.84,398.525,348.511,398.525L348.511,398.525z"/>
	<path fill-rule="evenodd" clip-rule="evenodd" d="M313.982,390.496l-2.749-5.958l-1.986,0.764c0,0-1.681-0.566-4.431-0.566
		s-11.577,1.56-11.577,9.351c0,7.791,11.271,8.34,13.945,8.34c0,0,5.347,0.215,10.007-3.223l-2.444-2.749
		c0,0-2.063,2.216-6.646,2.216c-4.583,0-6.034-3.132-6.034-5.195s1.986-4.736,4.736-4.736s4.965,3.055,4.965,3.055L313.982,390.496
		L313.982,390.496z"/>
</g>
</svg>
